HIERARCHY
ROOT pelvis
{
  OFFSET 0 100 0
  CHANNELS 6 Xposition Yposition Zposition Zrotation Xrotation Yrotation
  JOINT pelvis_right_femur
  {
    OFFSET -10.78128 -3.44521 -0.5502486
    CHANNELS 3 Zrotation Xrotation Yrotation
    JOINT right_femur_tibia
    {
      OFFSET -0.8047443 -44.0398 -0.1307829
      CHANNELS 3 Zrotation Xrotation Yrotation
      JOINT right_tibia_foot
      {
        OFFSET 3.006224 -47.83518 -5
        CHANNELS 3 Zrotation Xrotation Yrotation
        End Site
        {
          OFFSET 0 -5 15
        }
      }
    }
  }
  JOINT pelvis_left_femur
  {
    OFFSET 10.78128 -3.44521 -0.5502486
    CHANNELS 3 Zrotation Xrotation Yrotation
    JOINT left_femur_tibia
    {
      OFFSET 0.8047443 -44.0398 -0.1307829
      CHANNELS 3 Zrotation Xrotation Yrotation
      JOINT left_tibia_foot
      {
        OFFSET -4.370144 -48.10324 -4.275266
        CHANNELS 3 Zrotation Xrotation Yrotation
        End Site
        {
          OFFSET 0 -5 15
        }
      }
    }
  }
  JOINT pelvis_spine1
  {
    OFFSET 0 6.468898 -3.129235
    CHANNELS 3 Zrotation Xrotation Yrotation
    JOINT spine1
    {
      OFFSET 0 23.15396 4.99043
      CHANNELS 3 Zrotation Xrotation Yrotation
      JOINT spine2
      {
        OFFSET 0 20.79997 -5.064912
        CHANNELS 3 Zrotation Xrotation Yrotation
        JOINT neck
        {
          OFFSET 0 14.38658 9.616178
          CHANNELS 3 Zrotation Xrotation Yrotation
          End Site
          {
            OFFSET 0 20 0
          }
        }
      }
      JOINT right_manubrium
      {
        OFFSET -5.722621 16.35077 3.967754
        CHANNELS 3 Zrotation Xrotation Yrotation
        JOINT right_clavicle
        {
          OFFSET -13.16364 1.694482 -4.693211
          CHANNELS 3 Zrotation Xrotation Yrotation
          JOINT right_humerus
          {
            OFFSET -28.5034 -0.3100689 -2.792744
            CHANNELS 3 Zrotation Xrotation Yrotation
            JOINT right_radius
            {
              OFFSET -25.15693 0.02248979 -1.271978
              CHANNELS 3 Zrotation Xrotation Yrotation
              End Site
              {
                OFFSET -15 0 0
              }
            }
          }
        }
      }
      JOINT left_manubrium
      {
        OFFSET 5.722621 16.35077 3.967754
        CHANNELS 3 Zrotation Xrotation Yrotation
        JOINT left_clavicle
        {
          OFFSET 13.16364 1.694482 -4.693211
          CHANNELS 3 Zrotation Xrotation Yrotation
          JOINT left_humerus
          {
            OFFSET 29.39168 -1.063119 -2.237045
            CHANNELS 3 Zrotation Xrotation Yrotation
            JOINT left_radius
            {
              OFFSET 24.59957 -0.9528479 0.9047498
              CHANNELS 3 Zrotation Xrotation Yrotation
              End Site
              {
                OFFSET 15 -0 -0
              }
            }
          }
        }
      }
    }
  }
}
MOTION
Frames: 23
Frame Time: 0.0416666666667
0 103.5113 0 1.964806 -2.897504 0.1808885 1.65765 -12.37707 6.105648 -0 35.65183 -0 -4.577351 -18.21513 -4.110254 -6.866647 14.38024 -24.74233 -0 4.857616 -0 -1.460998 -20.57879 21.66908 -4.291789 -2.991593 3.130038 2.043086 7.331332 -7.367201 0.4698493 23.96677 7.854815 3.935137 -21.27738 8.187095 6.540424 -18.10198 11.00213 85.9922 35.51037 -21.18003 -0 0 15.43309 -8.439663 8.013226 4.939221 4.34246 -17.99043 -3.725453 -98.92297 40.67905 26.30466 0 0 -19.84392 -11.27926 16.27175 26.18361
0.129763 103.5225 1.520369 1.536986 -2.370378 0.2279926 2.288454 -14.57358 6.309145 -0 35.53899 -0 -4.889158 -16.84719 -4.190082 -6.553022 14.4183 -24.36755 -0 5.012985 -0 -1.449117 -21.01632 21.53627 -3.990719 -2.800944 3.103693 2.106309 7.352777 -7.517625 0.5460872 23.65433 7.859901 4.036793 -21.78347 8.221871 6.580811 -18.14157 11.00432 86.06118 35.63283 -21.28968 -0 0 15.38012 -8.309819 8.073421 4.898559 4.557561 -18.28069 -3.518818 -98.75269 40.2793 26.23611 0 0 -20.07051 -10.69898 16.33385 25.83981
0.2547324 103.5839 3.243955 0.9495692 -1.565368 0.2939548 3.181883 -17.79535 6.669259 -0 35.65146 -0 -5.71731 -13.8958 -4.352416 -6.234348 14.11135 -23.24077 -0 5.199886 -0 -0.518511 -21.37266 21.5894 -3.713424 -2.543622 3.063834 2.363422 7.803394 -7.963124 0.5591736 23.04673 7.809988 4.106618 -22.85034 8.14403 6.580764 -18.43201 11.22585 86.46847 35.73624 -21.60039 -0 0 14.92366 -8.438677 8.010786 5.311285 4.699816 -19.06286 -3.301384 -97.67484 38.83528 25.49436 0 0 -20.55128 -8.938177 16.08635 24.33785
0.3640497 103.5963 5.234971 0.2432222 -0.7681554 0.3742546 4.194668 -21.41938 6.839772 -0 34.42388 -0 -6.035349 -11.95691 -4.319208 -5.691839 14.22017 -22.54802 -0 5.644827 -0 -0.9262783 -22.13443 20.96267 -3.145918 -2.132425 3.008526 2.433746 7.733841 -8.130911 0.7102026 22.58713 7.857459 4.257579 -23.54416 8.284096 6.489983 -18.39302 11.16356 86.59401 35.65674 -21.75387 -0 0 14.84357 -8.372792 8.208307 5.217882 5.1306 -19.49658 -3.004645 -97.28172 38.18468 25.1579 0 0 -21.08432 -7.97308 16.16176 23.71013
0.4477798 103.5139 7.510597 -0.4366094 -0.01876224 0.4612028 5.151104 -24.77323 6.908281 -0 32.25513 -0 -6.025549 -10.95814 -4.176902 -5.092803 14.57481 -22.24761 -0 6.421799 -0 -2.116651 -22.98958 19.96946 -2.4895 -1.693401 2.949384 2.398486 7.32336 -8.105838 0.9390497 22.28002 7.968843 4.438952 -23.9559 8.581883 6.363846 -18.10771 10.92868 86.53154 35.56826 -21.81399 -0 0 14.93689 -8.172328 8.593239 4.807005 5.667718 -19.64175 -2.664098 -97.30605 38.08151 25.03041 0 0 -21.54211 -7.542492 16.49031 23.58771
0.4955456 103.3446 10.08961 -1.064808 0.6942396 0.5561204 6.036409 -27.57576 6.969258 -0 29.65029 -0 -5.767874 -10.79037 -3.957173 -4.47283 15.09564 -22.38334 -0 7.737595 -0 -3.91677 -23.76083 18.75096 -1.789774 -1.283181 2.88825 2.269909 6.610462 -7.893827 1.246535 22.12205 8.124787 4.634951 -24.14128 9.039461 6.256644 -17.58406 10.54785 86.2792 35.60186 -21.74899 -0 0 15.14633 -7.785926 9.1529 4.0946 6.231687 -19.46312 -2.250701 -97.73797 38.43041 25.15616 0 0 -21.76193 -7.52711 17.08988 23.83707
0.501026 103.1512 13.00594 -1.628769 1.318266 0.6825463 6.836519 -29.56619 7.067135 -0 27.3881 -0 -5.350375 -11.15874 -3.696159 -3.853725 15.68617 -22.90447 -0 9.770872 -0 -6.184893 -24.26752 17.41151 -1.075336 -0.9245853 2.802961 2.045892 5.669556 -7.505143 1.622002 22.10732 8.300402 4.828519 -24.11681 9.622072 6.211985 -16.83977 10.0559 85.84999 35.82034 -21.49603 -0 0 15.41002 -7.244987 9.863984 3.152889 6.729092 -18.94055 -1.780016 -98.51992 39.1113 25.55448 0 0 -21.6035 -7.842631 17.89866 24.38088
0.469906 103.0088 16.32441 -2.13905 1.865244 0.8820955 7.547502 -31.0463 7.115739 -0 25.69743 -0 -5.090938 -11.05549 -3.451831 -3.29451 16.15845 -23.25738 -0 12.39621 -0 -8.380078 -24.42183 16.01941 -0.4275024 -0.5703623 2.647057 1.838648 4.829582 -7.135293 1.971715 22.09712 8.464393 4.995185 -24.09577 10.16992 6.190717 -16.03893 9.619041 85.49545 36.13719 -21.19734 -0 0 15.4305 -6.890085 10.63038 2.406341 7.049425 -18.3959 -1.373878 -99.00168 39.56715 25.7178 0 0 -21.32043 -7.994783 18.55856 24.7166
0.4321815 102.8573 20.12683 -2.51636 2.621902 1.185837 8.008687 -33.26836 6.663786 -0 22.42536 -0 -5.788671 -8.261563 -3.250167 -3.064971 16.12984 -21.87917 -0 14.61659 -0 -8.976863 -24.40993 14.54687 -0.1856834 -0.1203759 2.398253 2.083574 4.980159 -7.429427 1.969063 21.64664 8.601847 5.111912 -24.81047 10.2326 5.967747 -15.71868 9.734409 86.03945 36.2316 -21.64745 -0 0 14.36423 -7.727126 11.15054 3.126134 7.039074 -18.95652 -1.393216 -97.3144 38.34821 24.0421 0 0 -22.19719 -6.736772 17.98943 23.49829
0.4512447 102.1302 24.4845 -2.069488 3.533336 1.574793 6.548143 -35.96274 3.93583 -0 11.64073 -0 -7.889217 -1.354165 -2.917064 -3.843222 14.89724 -16.27297 -0 13.86299 -0 -6.136371 -24.57372 12.4109 -1.148531 0.3155267 2.304285 3.434497 7.251768 -9.192743 1.12774 20.4387 8.569891 4.749305 -26.88845 9.205419 4.509745 -16.78698 11.0188 88.9759 34.08689 -24.20769 -0 0 10.9609 -11.61629 10.56109 7.1727 6.402724 -22.29199 -2.587574 -91.26328 33.12052 18.43909 0 0 -26.76645 -2.825271 14.10865 19.16517
0.4803753 99.85615 29.62488 0.2310284 2.498484 2.185471 1.43557 -32.79352 -1.300608 0 -4.943694 0 -8.604056 2.814564 -3.696597 -5.45932 14.35363 -8.105447 -0 7.838905 -0 -2.856043 -25.11264 9.60848 -3.34921 -0.3177509 2.683759 4.901678 9.665533 -10.91346 0.2336766 20.14004 7.600586 2.795259 -27.56603 7.760053 0.3217257 -18.33125 12.07945 93.62955 25.77657 -27.51716 -0 0 5.79272 -16.76507 7.766868 11.35815 5.434025 -26.74799 -4.564401 -83.83391 25.90617 10.28613 0 0 -34.46558 1.259331 8.132428 13.78304
0.3784317 97.33108 36.12805 0.6929577 1.106386 3.319704 1.527907 -30.10368 -0.4700166 0 -2.857844 0 -7.740179 1.901252 -6.484645 -5.030586 19.34621 -6.325746 -0 5.150251 -0 -4.755748 -24.64237 9.287888 -3.186106 -1.56032 1.97411 4.350945 8.489675 -10.23612 0.8620272 20.82839 6.247172 1.540269 -25.59225 7.555741 -1.531008 -16.83796 11.24815 94.83591 20.96824 -27.65809 -0 0 3.067032 -15.343 6.143757 9.178818 5.873366 -26.6935 -4.057325 -81.76864 24.93376 6.23251 0 0 -35.7662 2.441659 7.808352 11.57227
0.2328179 96.08063 43.19706 -1.375412 1.236763 4.246763 5.766882 -31.33018 2.805414 -0 9.22244 -0 -8.005112 0.7668527 -7.34719 -2.989123 22.14638 -9.298752 -0 11.81381 -0 -8.008875 -21.13451 9.364212 -0.8887263 -1.355977 0.7458345 3.592059 7.069175 -9.357341 1.36231 20.82068 6.213272 2.138288 -24.67345 7.805374 0.6677718 -14.83658 10.77457 92.69044 24.39298 -25.73231 -0 0 3.986691 -12.56488 7.63049 7.011318 6.059125 -23.87672 -3.096306 -83.78727 26.92091 8.028127 0 0 -30.54819 2.139692 10.67206 12.0222
0.1075601 95.80252 50.0807 -2.577902 0.7422565 4.643992 7.945945 -29.98138 3.99804 -0 15.77172 -0 -8.430399 -1.239162 -7.167869 -1.9201 20.9605 -11.31206 -0 22.45575 -0 -9.900734 -17.00555 8.990948 0.572245 -0.65535 0.3265798 3.233987 6.690222 -8.864599 1.548475 21.15978 6.256526 2.59687 -24.00355 7.808459 2.563175 -13.72585 10.74509 90.81892 27.82853 -23.93469 -0 0 5.167931 -11.93536 9.513284 6.597624 5.424203 -21.67562 -2.999008 -85.59462 28.36093 10.07104 0 0 -25.87181 1.385357 12.86379 13.17252
-0.01227754 96.18471 56.71859 -2.624552 -0.6685555 4.544881 8.219872 -26.64364 4.044919 -0 18.51634 -0 -8.665385 -3.440575 -7.251842 -1.781989 18.67187 -11.79599 -0 33.13189 -0 -10.58765 -13.83867 9.202457 0.9264003 -0.05227465 0.4690932 2.930348 6.721056 -8.406879 1.840508 21.97547 5.83614 2.604118 -22.72982 7.60886 3.403913 -12.89033 10.66623 89.87909 29.44234 -22.62837 -0 0 5.430226 -12.13703 10.5863 6.468741 4.701744 -20.41621 -3.145827 -86.14222 29.06343 10.32925 0 0 -22.9968 0.9702939 14.07792 13.66123
-0.1210769 97.20422 63.03998 -2.234474 -2.117266 4.070908 7.907637 -21.74807 3.855412 -0 19.68742 -0 -8.848309 -5.680688 -7.03048 -2.047993 14.5466 -11.61909 -0 44.25247 -0 -10.72968 -10.8094 9.80601 0.8510441 0.5217824 1.164774 2.643967 6.972066 -7.844943 2.046767 22.81721 5.417628 2.617236 -21.51617 7.299103 4.010384 -12.48731 10.69166 88.95067 30.71897 -21.2428 -0 0 5.793913 -12.54575 11.19156 6.552001 3.995643 -19.50956 -3.232093 -86.83219 29.32706 10.95937 0 0 -20.53736 0.7255578 14.55555 13.923
-0.2001839 98.64232 68.98921 -1.54407 -3.162383 3.389195 7.210791 -15.92495 3.534009 -0 19.05309 -0 -8.889195 -7.64356 -6.295295 -2.513506 8.466585 -10.93532 -0 53.69455 -0 -10.40081 -8.354146 10.64693 0.4176503 1.04527 2.388771 2.376694 7.386806 -7.199165 2.035721 23.43028 5.226097 2.778809 -20.72634 6.905765 4.478442 -12.71204 10.90101 87.82244 31.9007 -19.70309 -0 0 6.576912 -13.13392 11.36916 6.936001 3.505716 -19.00308 -3.202331 -87.8907 29.0945 12.44361 0 0 -18.66368 0.6899154 14.2054 13.95284
-0.248022 100.1578 74.61166 -0.6620201 -3.95616 2.661838 6.289376 -9.953172 3.173578 -0 17.15934 -0 -8.681239 -9.329757 -5.353044 -2.880409 1.523063 -9.959119 -0 59.5058 -0 -9.669443 -6.920185 11.84361 -0.2824742 1.49692 3.793148 2.039572 7.822093 -6.459164 1.916024 23.83786 5.190677 2.989007 -20.13355 6.542379 4.679496 -13.36106 11.17131 86.57315 32.78814 -17.89871 -0 0 7.648505 -13.89989 11.28135 7.49048 3.377661 -18.78596 -3.060057 -88.9035 28.35867 14.08031 0 0 -17.41602 1.035217 13.35587 13.39403
-0.2653596 101.4523 80.00613 0.2110713 -4.718675 1.990465 5.391013 -4.105955 2.843949 -0 14.70737 -0 -8.206667 -10.78599 -4.499588 -2.865156 -5.450096 -8.802933 -0 61.107 -0 -8.714178 -6.390034 13.43432 -1.010986 1.846263 5.080498 1.600553 8.232734 -5.654869 1.810908 24.09768 5.150513 3.091891 -19.56636 6.261424 4.523797 -14.33502 11.4207 85.28649 33.09335 -15.72346 -0 0 9.019473 -14.98713 11.16528 8.255698 3.540824 -18.63967 -2.853782 -89.71709 27.28475 15.59827 0 0 -16.47669 1.532116 12.42149 12.48899
-0.2221774 102.3005 85.26612 0.8832186 -5.308901 1.42148 4.686152 1.694656 2.511003 -0 11.90089 -0 -7.515507 -12.07288 -3.684127 -2.252463 -12.50041 -7.366838 -0 58.27658 -0 -7.704136 -6.374338 15.22129 -1.551484 2.052767 6.189454 1.121589 8.639972 -4.873921 1.678451 24.14946 5.099329 3.051335 -19.17511 6.02008 4.088035 -15.77897 11.68159 83.86597 32.85414 -13.13155 -0 0 10.9523 -16.59577 11.15334 9.471489 3.842537 -18.47215 -2.612743 -90.50742 26.03649 17.41181 0 0 -15.66897 1.802925 11.51647 11.84876
-0.07410513 102.5433 90.49213 1.140993 -5.443537 0.942625 4.307422 6.956803 2.121459 -0 9.186121 -0 -6.7523 -13.43324 -2.834524 -0.9346434 -19.10425 -5.654283 -0 50.61451 -0 -6.757065 -6.566899 16.93907 -1.738255 2.080675 6.96531 0.7023094 8.958054 -4.253707 1.458155 23.94633 5.126432 2.888348 -19.08895 5.850287 3.507198 -17.62228 11.91653 82.25546 32.37646 -10.23412 -0 0 13.4572 -18.66335 11.2522 11.17961 4.162368 -18.25137 -2.335839 -91.24243 24.76204 19.52811 0 0 -14.993 1.799604 10.71132 11.65589
0.2011173 102.1429 95.78655 0.8710269 -5.052034 0.4913397 4.293013 10.98383 1.686277 -0 7.3093 -0 -6.078437 -15.13886 -2.017327 0.8565711 -24.18815 -3.928636 -0 39.22994 -0 -5.964693 -6.67395 18.37491 -1.527611 1.936979 7.23578 0.4260538 9.070312 -3.907057 1.182852 23.56293 5.266254 2.649376 -19.22085 5.819216 2.888636 -19.4698 12.00801 80.57093 31.9144 -7.334045 -0 0 16.17726 -20.8146 11.30929 13.07716 4.390707 -17.92896 -2.053649 -91.74098 23.67055 21.44668 0 0 -14.34984 1.697284 10.06277 11.7159
0.5977277 101.2129 101.2555 0.2696788 -4.453308 -0.01016664 4.443435 13.73706 1.374297 -0 6.880576 -0 -5.436986 -17.01596 -1.406934 2.407776 -27.042 -2.733498 -0 27.29926 -0 -5.391665 -6.572701 19.46511 -1.103006 1.657657 7.105344 0.2768378 8.958238 -3.775381 1.007009 23.15624 5.393371 2.394924 -19.2973 5.919952 2.209881 -20.89046 11.83426 79.16869 31.18043 -4.842598 -0 0 18.74 -22.47961 10.96859 14.61424 4.482914 -17.39314 -1.834901 -92.0661 22.98673 22.80554 0 0 -13.32122 1.527972 9.456347 11.91612
